<svg width="19" height="19" viewBox="0 0 19 19" fill="none" xmlns="http://www.w3.org/2000/svg">
<g clip-path="url(#clip0_3487_157)">
<path d="M9.50066 17.4166C10.5405 17.4179 11.5703 17.2137 12.531 16.8158C13.4916 16.4178 14.3642 15.834 15.0985 15.0978C15.8347 14.3635 16.4186 13.4909 16.8165 12.5302C17.2144 11.5696 17.4186 10.5397 17.4173 9.49992C17.4186 8.46011 17.2144 7.43028 16.8165 6.46962C16.4186 5.50896 15.8347 4.63639 15.0985 3.90205C14.3642 3.16586 13.4916 2.58203 12.531 2.1841C11.5703 1.78617 10.5405 1.58198 9.50066 1.58326C8.46084 1.58198 7.43101 1.78617 6.47035 2.1841C5.50969 2.58203 4.63712 3.16586 3.90278 3.90205C3.1666 4.63639 2.58276 5.50896 2.18483 6.46962C1.7869 7.43028 1.58271 8.46011 1.58399 9.49992C1.58271 10.5397 1.7869 11.5696 2.18483 12.5302C2.58276 13.4909 3.1666 14.3635 3.90278 15.0978C4.63712 15.834 5.50969 16.4178 6.47035 16.8158C7.43101 17.2137 8.46084 17.4179 9.50066 17.4166Z" stroke="#12B636" stroke-width="2" stroke-linejoin="round"/>
<path d="M6.33398 9.5L8.70898 11.875L13.459 7.125" stroke="#12B636" stroke-width="2" stroke-linecap="round" stroke-linejoin="round"/>
</g>
<defs>
<clipPath id="clip0_3487_157">
<rect width="19" height="19" fill="white"/>
</clipPath>
</defs>
</svg>
